<mxfile host="app.diagrams.net" modified="2023-01-23T14:19:41.533Z" agent="5.0 (Windows NT 10.0; Win64; x64) AppleWebKit/537.36 (KHTML, like Gecko) Chrome/109.0.0.0 Safari/537.36" etag="lD1ukiSZL9b3_B4ooLsi" version="20.8.10" type="github">
  <diagram name="Page-1" id="5987fedf-629e-85c4-6858-42fee31821dd">
    <mxGraphModel dx="1007" dy="589" grid="1" gridSize="10" guides="1" tooltips="1" connect="1" arrows="1" fold="1" page="1" pageScale="1.5" pageWidth="1169" pageHeight="826" background="none" math="0" shadow="0">
      <root>
        <mxCell id="0" style=";html=1;" />
        <mxCell id="1" style=";html=1;" parent="0" />
        <mxCell id="2a5a01dd2e413fbf-1" value="" style="ellipse;whiteSpace=wrap;html=1;rounded=0;shadow=0;strokeWidth=1;fillColor=#dae8fc;fontSize=24;align=right;strokeColor=#6c8ebf;opacity=50;" parent="1" vertex="1">
          <mxGeometry x="1600" y="120" width="500" height="230" as="geometry" />
        </mxCell>
        <mxCell id="2a5a01dd2e413fbf-2" value="" style="ellipse;whiteSpace=wrap;html=1;rounded=0;shadow=0;strokeWidth=1;fillColor=#d5e8d4;fontSize=24;align=right;strokeColor=#82b366;opacity=50;" parent="1" vertex="1">
          <mxGeometry x="1500" y="200" width="330" height="490" as="geometry" />
        </mxCell>
        <mxCell id="2a5a01dd2e413fbf-3" value="" style="ellipse;whiteSpace=wrap;html=1;rounded=0;shadow=0;strokeWidth=1;fillColor=#ffe6cc;fontSize=24;align=right;strokeColor=#d79b00;opacity=50;" parent="1" vertex="1">
          <mxGeometry x="1620" y="550" width="380" height="180" as="geometry" />
        </mxCell>
        <mxCell id="2a5a01dd2e413fbf-7" value="" style="ellipse;whiteSpace=wrap;html=1;rounded=0;shadow=0;strokeWidth=1;fillColor=#d5e8d4;fontSize=24;align=right;strokeColor=#82b366;opacity=50;" parent="1" vertex="1">
          <mxGeometry x="2505" y="300" width="350" height="390" as="geometry" />
        </mxCell>
        <mxCell id="2a5a01dd2e413fbf-8" value="" style="ellipse;whiteSpace=wrap;html=1;rounded=0;shadow=0;strokeWidth=1;fillColor=#ffe6cc;fontSize=24;align=right;strokeColor=#d79b00;opacity=50;" parent="1" vertex="1">
          <mxGeometry x="2285" y="170" width="380" height="370" as="geometry" />
        </mxCell>
        <mxCell id="2a5a01dd2e413fbf-9" value="" style="ellipse;whiteSpace=wrap;html=1;rounded=0;shadow=0;strokeWidth=1;fillColor=#fff2cc;fontSize=24;align=right;strokeColor=#d6b656;opacity=50;" parent="1" vertex="1">
          <mxGeometry x="2515" y="30" width="340" height="360" as="geometry" />
        </mxCell>
        <mxCell id="2a5a01dd2e413fbf-43" style="edgeStyle=none;curved=1;html=1;endArrow=none;endFill=0;strokeColor=#0066CC;strokeWidth=4;fontSize=24;dashed=1;dashPattern=1 1;" parent="1" source="2a5a01dd2e413fbf-11" target="2a5a01dd2e413fbf-13" edge="1">
          <mxGeometry relative="1" as="geometry">
            <Array as="points">
              <mxPoint x="1730" y="280" />
            </Array>
          </mxGeometry>
        </mxCell>
        <mxCell id="2a5a01dd2e413fbf-11" value="" style="whiteSpace=wrap;html=1;rounded=0;shadow=0;strokeWidth=1;fillColor=#FF6666;fontSize=24;align=right;strokeColor=#b85450;" parent="1" vertex="1">
          <mxGeometry x="1850" y="210" width="20" height="20" as="geometry" />
        </mxCell>
        <mxCell id="2a5a01dd2e413fbf-12" value="" style="whiteSpace=wrap;html=1;rounded=0;shadow=0;strokeWidth=1;fillColor=#FF6666;fontSize=24;align=right;strokeColor=#b85450;" parent="1" vertex="1">
          <mxGeometry x="1700" y="250" width="20" height="20" as="geometry" />
        </mxCell>
        <mxCell id="2a5a01dd2e413fbf-44" style="edgeStyle=none;curved=1;html=1;endArrow=none;endFill=0;strokeColor=#0066CC;strokeWidth=4;fontSize=24;dashed=1;dashPattern=1 1;" parent="1" source="2a5a01dd2e413fbf-13" target="2a5a01dd2e413fbf-15" edge="1">
          <mxGeometry relative="1" as="geometry">
            <Array as="points">
              <mxPoint x="1790" y="500" />
            </Array>
          </mxGeometry>
        </mxCell>
        <mxCell id="2a5a01dd2e413fbf-13" value="" style="whiteSpace=wrap;html=1;rounded=0;shadow=0;strokeWidth=1;fillColor=#FF6666;fontSize=24;align=right;strokeColor=#b85450;" parent="1" vertex="1">
          <mxGeometry x="1640" y="380" width="20" height="20" as="geometry" />
        </mxCell>
        <mxCell id="2a5a01dd2e413fbf-14" value="" style="whiteSpace=wrap;html=1;rounded=0;shadow=0;strokeWidth=1;fillColor=#FF6666;fontSize=24;align=right;strokeColor=#b85450;" parent="1" vertex="1">
          <mxGeometry x="1690" y="610" width="20" height="20" as="geometry" />
        </mxCell>
        <mxCell id="2a5a01dd2e413fbf-35" style="edgeStyle=none;curved=1;html=1;endArrow=none;endFill=0;fontSize=24;strokeWidth=4;strokeColor=#00CC00;" parent="1" source="2a5a01dd2e413fbf-15" target="2a5a01dd2e413fbf-25" edge="1">
          <mxGeometry relative="1" as="geometry">
            <Array as="points">
              <mxPoint x="2160" y="290" />
            </Array>
          </mxGeometry>
        </mxCell>
        <mxCell id="2a5a01dd2e413fbf-15" value="" style="whiteSpace=wrap;html=1;rounded=0;shadow=0;strokeWidth=1;fillColor=#FF6666;fontSize=24;align=right;strokeColor=#b85450;" parent="1" vertex="1">
          <mxGeometry x="1830" y="650" width="20" height="20" as="geometry" />
        </mxCell>
        <mxCell id="2a5a01dd2e413fbf-36" style="edgeStyle=none;curved=1;html=1;endArrow=none;endFill=0;strokeColor=#FF0000;strokeWidth=4;fontSize=24;dashed=1;" parent="1" source="2a5a01dd2e413fbf-15" target="2a5a01dd2e413fbf-21" edge="1">
          <mxGeometry relative="1" as="geometry">
            <mxPoint x="2860" y="590" as="targetPoint" />
            <Array as="points">
              <mxPoint x="2380" y="670" />
            </Array>
            <mxPoint x="2090" y="640" as="sourcePoint" />
          </mxGeometry>
        </mxCell>
        <mxCell id="2a5a01dd2e413fbf-39" style="edgeStyle=none;curved=1;html=1;endArrow=none;endFill=0;strokeColor=#FF0000;strokeWidth=4;fontSize=24;dashed=1;" parent="1" source="2a5a01dd2e413fbf-15" target="2a5a01dd2e413fbf-11" edge="1">
          <mxGeometry relative="1" as="geometry">
            <Array as="points">
              <mxPoint x="2020" y="450" />
            </Array>
            <mxPoint x="2479.743589743589" y="850" as="sourcePoint" />
          </mxGeometry>
        </mxCell>
        <mxCell id="2a5a01dd2e413fbf-37" style="edgeStyle=none;curved=1;html=1;endArrow=none;endFill=0;strokeColor=#FF0000;strokeWidth=4;fontSize=24;dashed=1;" parent="1" source="2a5a01dd2e413fbf-21" target="2a5a01dd2e413fbf-23" edge="1">
          <mxGeometry relative="1" as="geometry">
            <Array as="points">
              <mxPoint x="2710" y="410" />
            </Array>
          </mxGeometry>
        </mxCell>
        <mxCell id="2a5a01dd2e413fbf-21" value="" style="whiteSpace=wrap;html=1;rounded=0;shadow=0;strokeWidth=1;fillColor=#FF6666;fontSize=24;align=right;strokeColor=#b85450;" parent="1" vertex="1">
          <mxGeometry x="2685" y="495" width="20" height="20" as="geometry" />
        </mxCell>
        <mxCell id="2a5a01dd2e413fbf-22" value="" style="whiteSpace=wrap;html=1;rounded=0;shadow=0;strokeWidth=1;fillColor=#FF6666;fontSize=24;align=right;strokeColor=#b85450;" parent="1" vertex="1">
          <mxGeometry x="2560" y="435" width="20" height="20" as="geometry" />
        </mxCell>
        <mxCell id="2a5a01dd2e413fbf-40" style="edgeStyle=none;curved=1;html=1;entryX=0.5;entryY=0;endArrow=none;endFill=0;strokeColor=#0066CC;strokeWidth=4;fontSize=24;dashed=1;dashPattern=1 1;" parent="1" source="2a5a01dd2e413fbf-23" target="2a5a01dd2e413fbf-22" edge="1">
          <mxGeometry relative="1" as="geometry">
            <Array as="points">
              <mxPoint x="2570" y="390" />
            </Array>
          </mxGeometry>
        </mxCell>
        <mxCell id="2a5a01dd2e413fbf-41" style="edgeStyle=none;curved=1;html=1;endArrow=none;endFill=0;strokeColor=#0066CC;strokeWidth=4;fontSize=24;dashed=1;dashPattern=1 1;" parent="1" source="2a5a01dd2e413fbf-23" target="2a5a01dd2e413fbf-24" edge="1">
          <mxGeometry relative="1" as="geometry">
            <Array as="points">
              <mxPoint x="2670" y="330" />
            </Array>
          </mxGeometry>
        </mxCell>
        <mxCell id="2a5a01dd2e413fbf-42" style="edgeStyle=none;curved=1;html=1;endArrow=none;endFill=0;strokeColor=#0066CC;strokeWidth=4;fontSize=24;dashed=1;dashPattern=1 1;" parent="1" source="2a5a01dd2e413fbf-23" target="2a5a01dd2e413fbf-11" edge="1">
          <mxGeometry relative="1" as="geometry">
            <mxPoint x="2150" y="330" as="targetPoint" />
            <Array as="points">
              <mxPoint x="2270" y="210" />
            </Array>
          </mxGeometry>
        </mxCell>
        <mxCell id="2a5a01dd2e413fbf-23" value="" style="whiteSpace=wrap;html=1;rounded=0;shadow=0;strokeWidth=1;fillColor=#FF6666;fontSize=24;align=right;strokeColor=#b85450;" parent="1" vertex="1">
          <mxGeometry x="2620" y="335" width="20" height="20" as="geometry" />
        </mxCell>
        <mxCell id="2a5a01dd2e413fbf-24" value="" style="whiteSpace=wrap;html=1;rounded=0;shadow=0;strokeWidth=1;fillColor=#FF6666;fontSize=24;align=right;strokeColor=#b85450;" parent="1" vertex="1">
          <mxGeometry x="2705" y="335" width="20" height="20" as="geometry" />
        </mxCell>
        <mxCell id="2a5a01dd2e413fbf-25" value="" style="whiteSpace=wrap;html=1;rounded=0;shadow=0;strokeWidth=1;fillColor=#FF6666;fontSize=24;align=right;strokeColor=#b85450;" parent="1" vertex="1">
          <mxGeometry x="2570" y="250" width="20" height="20" as="geometry" />
        </mxCell>
        <mxCell id="2a5a01dd2e413fbf-26" value="" style="whiteSpace=wrap;html=1;rounded=0;shadow=0;strokeWidth=1;fillColor=#FF6666;fontSize=24;align=right;strokeColor=#b85450;" parent="1" vertex="1">
          <mxGeometry x="2685" y="180" width="20" height="20" as="geometry" />
        </mxCell>
        <mxCell id="2a5a01dd2e413fbf-27" value="" style="whiteSpace=wrap;html=1;rounded=0;shadow=0;strokeWidth=1;fillColor=#FF6666;fontSize=24;align=right;strokeColor=#b85450;" parent="1" vertex="1">
          <mxGeometry x="2420" y="345" width="20" height="20" as="geometry" />
        </mxCell>
        <mxCell id="2a5a01dd2e413fbf-29" value="" style="curved=1;endArrow=none;html=1;fontSize=24;fontColor=#000000;endFill=0;strokeWidth=4;strokeColor=#00CC00;" parent="1" source="2a5a01dd2e413fbf-11" target="2a5a01dd2e413fbf-15" edge="1">
          <mxGeometry width="50" height="50" relative="1" as="geometry">
            <mxPoint x="2060" y="520" as="sourcePoint" />
            <mxPoint x="2180" y="310" as="targetPoint" />
            <Array as="points">
              <mxPoint x="1910" y="300" />
              <mxPoint x="1910" y="560" />
            </Array>
          </mxGeometry>
        </mxCell>
        <mxCell id="2a5a01dd2e413fbf-31" value="" style="curved=1;endArrow=none;html=1;fontSize=24;endFill=0;strokeWidth=4;strokeColor=#00CC00;" parent="1" source="2a5a01dd2e413fbf-14" target="2a5a01dd2e413fbf-15" edge="1">
          <mxGeometry width="50" height="50" relative="1" as="geometry">
            <mxPoint x="1680" y="780" as="sourcePoint" />
            <mxPoint x="1730" y="730" as="targetPoint" />
            <Array as="points">
              <mxPoint x="1770" y="590" />
              <mxPoint x="1820" y="616" />
            </Array>
          </mxGeometry>
        </mxCell>
        <mxCell id="2a5a01dd2e413fbf-47" value="A" style="text;html=1;strokeColor=none;fillColor=none;align=center;verticalAlign=middle;whiteSpace=wrap;rounded=0;shadow=0;fontSize=20;" parent="1" vertex="1">
          <mxGeometry x="1810" y="90" width="80" height="30" as="geometry" />
        </mxCell>
        <mxCell id="2a5a01dd2e413fbf-48" value="B" style="text;html=1;strokeColor=none;fillColor=none;align=center;verticalAlign=middle;whiteSpace=wrap;rounded=0;shadow=0;fontSize=20;" parent="1" vertex="1">
          <mxGeometry x="152" y="669" width="80" height="30" as="geometry" />
        </mxCell>
        <mxCell id="2a5a01dd2e413fbf-49" value="C" style="text;html=1;strokeColor=none;fillColor=none;align=center;verticalAlign=middle;whiteSpace=wrap;rounded=0;shadow=0;fontSize=20;" parent="1" vertex="1">
          <mxGeometry x="1790" y="730" width="80" height="30" as="geometry" />
        </mxCell>
        <mxCell id="2a5a01dd2e413fbf-54" value="D" style="text;html=1;strokeColor=none;fillColor=none;align=center;verticalAlign=middle;whiteSpace=wrap;rounded=0;shadow=0;fontSize=20;" parent="1" vertex="1">
          <mxGeometry x="2320" y="165" width="80" height="30" as="geometry" />
        </mxCell>
        <mxCell id="2a5a01dd2e413fbf-55" value="E" style="text;html=1;strokeColor=none;fillColor=none;align=center;verticalAlign=middle;whiteSpace=wrap;rounded=0;shadow=0;fontSize=20;" parent="1" vertex="1">
          <mxGeometry x="2655" width="80" height="30" as="geometry" />
        </mxCell>
        <mxCell id="2a5a01dd2e413fbf-56" value="F" style="text;html=1;strokeColor=none;fillColor=none;align=center;verticalAlign=middle;whiteSpace=wrap;rounded=0;shadow=0;fontSize=20;" parent="1" vertex="1">
          <mxGeometry x="2810" y="380" width="80" height="30" as="geometry" />
        </mxCell>
        <mxCell id="30JBpPZ3a9GQzdrcGxqS-3" value="Discovery-service" style="rounded=0;whiteSpace=wrap;html=1;" vertex="1" parent="1">
          <mxGeometry x="290" y="540" width="110" height="35" as="geometry" />
        </mxCell>
        <mxCell id="30JBpPZ3a9GQzdrcGxqS-4" value="Discovery-service" style="rounded=0;whiteSpace=wrap;html=1;" vertex="1" parent="1">
          <mxGeometry x="300" y="550" width="110" height="35" as="geometry" />
        </mxCell>
        <mxCell id="30JBpPZ3a9GQzdrcGxqS-5" value="Discovery-service" style="rounded=0;whiteSpace=wrap;html=1;" vertex="1" parent="1">
          <mxGeometry x="310" y="560" width="110" height="35" as="geometry" />
        </mxCell>
        <mxCell id="30JBpPZ3a9GQzdrcGxqS-6" value="Discovery-service" style="rounded=0;whiteSpace=wrap;html=1;" vertex="1" parent="1">
          <mxGeometry x="320" y="570" width="110" height="35" as="geometry" />
        </mxCell>
        <mxCell id="30JBpPZ3a9GQzdrcGxqS-7" value="Discovery-service" style="rounded=0;whiteSpace=wrap;html=1;" vertex="1" parent="1">
          <mxGeometry x="330" y="580" width="110" height="35" as="geometry" />
        </mxCell>
        <mxCell id="30JBpPZ3a9GQzdrcGxqS-8" value="API Data" style="rounded=0;whiteSpace=wrap;html=1;" vertex="1" parent="1">
          <mxGeometry x="640" y="860" width="110" height="35" as="geometry" />
        </mxCell>
        <mxCell id="30JBpPZ3a9GQzdrcGxqS-9" value="Integration (solr)" style="rounded=0;whiteSpace=wrap;html=1;" vertex="1" parent="1">
          <mxGeometry x="640" y="725" width="110" height="35" as="geometry" />
        </mxCell>
        <mxCell id="30JBpPZ3a9GQzdrcGxqS-10" value="Integration (resumes)" style="rounded=0;whiteSpace=wrap;html=1;" vertex="1" parent="1">
          <mxGeometry x="640" y="664" width="110" height="35" as="geometry" />
        </mxCell>
        <mxCell id="30JBpPZ3a9GQzdrcGxqS-11" value="Integration (core)" style="rounded=0;whiteSpace=wrap;html=1;" vertex="1" parent="1">
          <mxGeometry x="640" y="600" width="110" height="35" as="geometry" />
        </mxCell>
        <mxCell id="30JBpPZ3a9GQzdrcGxqS-16" value="API Data" style="sketch=0;html=1;dashed=0;whitespace=wrap;fillColor=#2875E2;strokeColor=#ffffff;points=[[0.005,0.63,0],[0.1,0.2,0],[0.9,0.2,0],[0.5,0,0],[0.995,0.63,0],[0.72,0.99,0],[0.5,1,0],[0.28,0.99,0]];verticalLabelPosition=bottom;align=center;verticalAlign=top;shape=mxgraph.kubernetes.icon;prIcon=api" vertex="1" parent="1">
          <mxGeometry x="140" y="211" width="50" height="48" as="geometry" />
        </mxCell>
        <mxCell id="30JBpPZ3a9GQzdrcGxqS-17" value="API Data" style="sketch=0;html=1;dashed=0;whitespace=wrap;fillColor=#2875E2;strokeColor=#ffffff;points=[[0.005,0.63,0],[0.1,0.2,0],[0.9,0.2,0],[0.5,0,0],[0.995,0.63,0],[0.72,0.99,0],[0.5,1,0],[0.28,0.99,0]];verticalLabelPosition=bottom;align=center;verticalAlign=top;shape=mxgraph.kubernetes.icon;prIcon=api" vertex="1" parent="1">
          <mxGeometry x="150" y="221" width="50" height="48" as="geometry" />
        </mxCell>
        <mxCell id="30JBpPZ3a9GQzdrcGxqS-18" value="API Data" style="sketch=0;html=1;dashed=0;whitespace=wrap;fillColor=#2875E2;strokeColor=#ffffff;points=[[0.005,0.63,0],[0.1,0.2,0],[0.9,0.2,0],[0.5,0,0],[0.995,0.63,0],[0.72,0.99,0],[0.5,1,0],[0.28,0.99,0]];verticalLabelPosition=bottom;align=center;verticalAlign=top;shape=mxgraph.kubernetes.icon;prIcon=api" vertex="1" parent="1">
          <mxGeometry x="160" y="231" width="50" height="48" as="geometry" />
        </mxCell>
        <mxCell id="30JBpPZ3a9GQzdrcGxqS-19" value="Discovery-service" style="sketch=0;html=1;dashed=0;whitespace=wrap;fillColor=#2875E2;strokeColor=#ffffff;points=[[0.005,0.63,0],[0.1,0.2,0],[0.9,0.2,0],[0.5,0,0],[0.995,0.63,0],[0.72,0.99,0],[0.5,1,0],[0.28,0.99,0]];verticalLabelPosition=bottom;align=center;verticalAlign=top;shape=mxgraph.kubernetes.icon;prIcon=api" vertex="1" parent="1">
          <mxGeometry x="740" y="81" width="50" height="48" as="geometry" />
        </mxCell>
        <mxCell id="30JBpPZ3a9GQzdrcGxqS-20" value="Config-server" style="sketch=0;html=1;dashed=0;whitespace=wrap;fillColor=#2875E2;strokeColor=#ffffff;points=[[0.005,0.63,0],[0.1,0.2,0],[0.9,0.2,0],[0.5,0,0],[0.995,0.63,0],[0.72,0.99,0],[0.5,1,0],[0.28,0.99,0]];verticalLabelPosition=bottom;align=center;verticalAlign=top;shape=mxgraph.kubernetes.icon;prIcon=api" vertex="1" parent="1">
          <mxGeometry x="660" y="90" width="50" height="48" as="geometry" />
        </mxCell>
        <mxCell id="30JBpPZ3a9GQzdrcGxqS-21" value="Proxy-service" style="sketch=0;html=1;dashed=0;whitespace=wrap;fillColor=#2875E2;strokeColor=#ffffff;points=[[0.005,0.63,0],[0.1,0.2,0],[0.9,0.2,0],[0.5,0,0],[0.995,0.63,0],[0.72,0.99,0],[0.5,1,0],[0.28,0.99,0]];verticalLabelPosition=bottom;align=center;verticalAlign=top;shape=mxgraph.kubernetes.icon;prIcon=api" vertex="1" parent="1">
          <mxGeometry x="820" y="90" width="50" height="48" as="geometry" />
        </mxCell>
        <mxCell id="30JBpPZ3a9GQzdrcGxqS-22" value="API Integration" style="sketch=0;html=1;dashed=0;whitespace=wrap;fillColor=#2875E2;strokeColor=#ffffff;points=[[0.005,0.63,0],[0.1,0.2,0],[0.9,0.2,0],[0.5,0,0],[0.995,0.63,0],[0.72,0.99,0],[0.5,1,0],[0.28,0.99,0]];verticalLabelPosition=bottom;align=center;verticalAlign=top;shape=mxgraph.kubernetes.icon;prIcon=api" vertex="1" parent="1">
          <mxGeometry x="400" y="186" width="50" height="48" as="geometry" />
        </mxCell>
        <mxCell id="30JBpPZ3a9GQzdrcGxqS-23" value="API Commons" style="sketch=0;html=1;dashed=0;whitespace=wrap;fillColor=#2875E2;strokeColor=#ffffff;points=[[0.005,0.63,0],[0.1,0.2,0],[0.9,0.2,0],[0.5,0,0],[0.995,0.63,0],[0.72,0.99,0],[0.5,1,0],[0.28,0.99,0]];verticalLabelPosition=bottom;align=center;verticalAlign=top;shape=mxgraph.kubernetes.icon;prIcon=api" vertex="1" parent="1">
          <mxGeometry x="400" y="110" width="50" height="48" as="geometry" />
        </mxCell>
        <mxCell id="30JBpPZ3a9GQzdrcGxqS-24" value="" style="sketch=0;pointerEvents=1;shadow=0;dashed=0;html=1;strokeColor=none;fillColor=#505050;labelPosition=center;verticalLabelPosition=bottom;verticalAlign=top;outlineConnect=0;align=center;shape=mxgraph.office.servers.web_server_blue;" vertex="1" parent="1">
          <mxGeometry x="113" y="343" width="48" height="57" as="geometry" />
        </mxCell>
        <mxCell id="30JBpPZ3a9GQzdrcGxqS-25" value="" style="sketch=0;aspect=fixed;html=1;points=[];align=center;image;fontSize=12;image=img/lib/mscae/App_Services.svg;" vertex="1" parent="1">
          <mxGeometry x="50" y="473" width="50" height="50" as="geometry" />
        </mxCell>
        <mxCell id="30JBpPZ3a9GQzdrcGxqS-26" value="" style="sketch=0;points=[[0,0,0],[0.25,0,0],[0.5,0,0],[0.75,0,0],[1,0,0],[0,1,0],[0.25,1,0],[0.5,1,0],[0.75,1,0],[1,1,0],[0,0.25,0],[0,0.5,0],[0,0.75,0],[1,0.25,0],[1,0.5,0],[1,0.75,0]];outlineConnect=0;fontColor=#232F3E;gradientColor=#945DF2;gradientDirection=north;fillColor=#5A30B5;strokeColor=#ffffff;dashed=0;verticalLabelPosition=bottom;verticalAlign=top;align=center;html=1;fontSize=12;fontStyle=0;aspect=fixed;shape=mxgraph.aws4.resourceIcon;resIcon=mxgraph.aws4.app_mesh;" vertex="1" parent="1">
          <mxGeometry x="36" y="542" width="78" height="78" as="geometry" />
        </mxCell>
        <mxCell id="30JBpPZ3a9GQzdrcGxqS-27" value="" style="sketch=0;aspect=fixed;html=1;points=[];align=center;image;fontSize=12;image=img/lib/mscae/WebHosting.svg;" vertex="1" parent="1">
          <mxGeometry x="50" y="360" width="50" height="50" as="geometry" />
        </mxCell>
        <mxCell id="30JBpPZ3a9GQzdrcGxqS-28" value="" style="aspect=fixed;html=1;points=[];align=center;image;fontSize=12;image=img/lib/azure2/databases/Azure_Database_MySQL_Server.svg;" vertex="1" parent="1">
          <mxGeometry x="163" y="479" width="48" height="64" as="geometry" />
        </mxCell>
        <mxCell id="30JBpPZ3a9GQzdrcGxqS-29" value="" style="aspect=fixed;html=1;points=[];align=center;image;fontSize=12;image=img/lib/azure2/databases/SQL_Server.svg;" vertex="1" parent="1">
          <mxGeometry x="223" y="620" width="68" height="68" as="geometry" />
        </mxCell>
        <mxCell id="30JBpPZ3a9GQzdrcGxqS-30" value="" style="verticalLabelPosition=bottom;sketch=0;aspect=fixed;html=1;verticalAlign=top;strokeColor=none;align=center;outlineConnect=0;shape=mxgraph.citrix.web_server;" vertex="1" parent="1">
          <mxGeometry x="74" y="690" width="76.5" height="90" as="geometry" />
        </mxCell>
        <mxCell id="30JBpPZ3a9GQzdrcGxqS-31" value="Admin-server" style="sketch=0;pointerEvents=1;shadow=0;dashed=0;html=1;strokeColor=none;fillColor=#505050;labelPosition=center;verticalLabelPosition=bottom;verticalAlign=top;outlineConnect=0;align=center;shape=mxgraph.office.concepts.application_web;" vertex="1" parent="1">
          <mxGeometry x="750" y="162" width="56" height="49" as="geometry" />
        </mxCell>
        <mxCell id="30JBpPZ3a9GQzdrcGxqS-32" value="Frontal JS MPV1" style="sketch=0;pointerEvents=1;shadow=0;dashed=0;html=1;strokeColor=none;fillColor=#505050;labelPosition=center;verticalLabelPosition=bottom;verticalAlign=top;outlineConnect=0;align=center;shape=mxgraph.office.concepts.application_web;" vertex="1" parent="1">
          <mxGeometry x="780" y="316" width="56" height="49" as="geometry" />
        </mxCell>
        <mxCell id="30JBpPZ3a9GQzdrcGxqS-37" value="RabbitMQ" style="shape=image;verticalLabelPosition=bottom;labelBackgroundColor=default;verticalAlign=top;aspect=fixed;imageAspect=0;image=data:image/png,iVBORw0KGgoAAAANSUhEUgAAAGsAAABdCAYAAACinJi8AAAHRUlEQVR4nO2dT6gkRx3HP7+qnrebt66bqMT4L7CBICSRhFx2L548rFcxeBGCBw+K6FWDkhyiEBISQvAmiCEmBg/BsBcTEC8ekujBoEj8AwYSVDa72UXfvpc301U/D1U9M++9+dMz2zPT1a8+0Lx5/a+661u/ql9X/6pa+v1SySSB2fQFZOqTxUqILFZCZLESIouVEFmshMhiJUQWKyGyWAlRNH5G9eAGoDU6RkwBdslLUI3p+Nn7iYAYsL3l0mkRjYilqkjMNPurhzBvPA8770XBomgK2Lj0AXMSvfsC5VeeRG/+NCoGEUFE5idYDjC/eQrzu58gV985WjBEwjqx0DuJfuIe3JcfR+84H7YlijTRN6iq4EqKF7+Fef3ZsNK7sR0MoKiE/MMrOEB6+O2P4X70Fpw4VS8d9dg/XcT+9KvgfbCsSWIBYMI2U8BNZxg8+lc48aEbvd2N0VibJdevYF77WRDJH66ahGDEBdgtBiXBwnpg9q/Bf/62SEqYl747XSgI66oFwJewew3768eXubXW0IhYAoi6sf/GUBOTMYgaKMFq2M0NBiAOGezWS0cEUY/0d6cLdfSgkJh66F+vfU9tpCEHQ1FfTs488YwEFNgfYGz4LWjITFeGdq9WexIdi9qXFkuGKgz26x/XQpr1BquG/QgO1A19DRyh3TKg6sHUdCyG6Sx6Yd14ZddINajKKLNlzIoY+xl8jKpGDAJZgxs4MvVops2q2oVp1lF58HE3jIQVzkc/oBslf9U024MxoypTAXoxRSvQM2CEXsFiVeAxpvkeDBjVgHpolQ/rVH34C4gKSzRCx5LViDULAdHhz1g1ZrHq0I6O3CxWLdohVq4Ga9ESsTJ1aIdYuRqsRTvEytVgLVoiVqYO7RArV4O1WP9z1kQWFUvHFjjaUduOMtg07birbFm1yGIlRDvEytSiJWJly6rDZsWSGe/AMkdoh2VlwWrRDrEytWiPWKt8td+RsIHNihUDMeUvrwA6NxZDXQmX/g47V6ooHSZGLg2fmf1oEUXefg36e+FY71ezrLBgbL4HQz324sNw6iPoZ78wbScA5L+XsC9+k2FwTt2MiW2i/OvP2IuP4M8/CGZF5dRY/OmPI9s3N37qRmLdUUWuvUvxyJ0xdFqH60cpVftOvIyYeVMspaI6t8SMnjaCRGcIMYzEmjP6ZFHUhMu3FrZvof+DN5FTH200iZa0WXpQ5GkMBWX56iYObljZ4krYuUzvh/fCYK/RMLuWiAVBMDd/gZW3DTdEdV0778H197sqVl10FCzaVqpRNA0XqATFOr5ksRIii5UQm3/OWgVNu+W10hz91BW1p9myEiKLlRBZrITIYiVEFishslgJ0U3XfSYG8Ph7v4SePRdWFVuxB1+g3AexyO77yO9/gVx9d8751veYcIzEiq9fPnwrg2+8DLffPzf2Qy88RPHqY5jfPgP9D9ZzmTPoeDUY53FQQ5h/qGDwtZ+jn/pcrSAd2boJ98Xvo2duj+eadEw1V8TwqJDerHdqS9JxscZQhRPb8Jn7wsRbc3dXFIFiC//5r6/uzfICHJ9qUADnUGNR9ciccirjMY1nPhn7kKqZV8ZZX5u1+eKyLlTBxDkNw+RRiyGbz6pjYlnV9DZww28tDxuWTLK21XBMxGoIhaNi64R1q2Hztp2pTRYrIbpdDR4IWNHRPETLnSwcfyAWcr1RO520LI+ERcI8lCrgvATXfT9M8bpIiJi888cQsCRy8Lg1h8N1UiwRwdjgnltrwNrwHGw88uZLCIqqxzmHcw7v/ZFFNezD7lXMH57DWA8GxArgwzR8hrVaV2erQfUeiZbgncMYQ7m3T+/l7+HEoOcexPROjPafYCWyc5nixxdwl/+N7VnUOcTa0JsxnGF7fdbVTbFEUO8x1uJKhykK1HmKnoUPduGFb1O8+gRy5rYwV+8k6+jv4S/9A3F72MKECZeLIghWFFCWQbQ11oTdFGvMSoyRoUW4QYnpbWG1hCtvh2VGZlsTBkyEjy8Ea5JFRq80TCfbLAjtlsaqSkTwpcNYg7gS9To/w1VRF8ZciQnOyRDvo1VlB+OGkdhDPv7X9mIlolrbJxBhNAiiKEY974f/rolOiuWjFVSWpc7hyzJstAt24lb7l+XIuqpPZxz5jMdq6aRY4xalcThrtW6YwfPMq9peVXWVFzi+bc0PxZ10MKQax+V8KI2q4bXTgY738VmVZxEH+Y1b0XBIz5SxR9UkzQ1r2UnLmsiyGTfTicgORmYKWayEaEwshbV7R8eNZr7yA4iYVsQpdJnGvvLjxYx5W20enZ0ujbnucvpW9Ox55J+vhw+bHbayzup38MZUFIxFz55DT9/WbEqNzDBTsfc/7C+/g3nrFSj7Bz3bmTPMpMyhUrh1EnfXBdwDT8PWdvi+W0PdUs2KBXFykbLRUyaHKWCZ2MQ5NN+DYexKLjSTn7OSIouVEFmshMhiJUQWKyGyWAmRxUqILFZC/B+S1APPcg6QxAAAAABJRU5ErkJggg==;" vertex="1" parent="1">
          <mxGeometry x="240" y="120" width="80.54" height="70" as="geometry" />
        </mxCell>
        <mxCell id="30JBpPZ3a9GQzdrcGxqS-38" value="Apache Solr" style="shape=image;verticalLabelPosition=bottom;labelBackgroundColor=default;verticalAlign=top;aspect=fixed;imageAspect=0;image=data:image/png,iVBORw0KGgoAAAANSUhEUgAAAHwAAAB0CAYAAABHTVbTAAAgAElEQVR4nO2dd5Qc13Xmf6+qOsfJyIMMAgQIgCAIgmAWxSDLCpQoypRpWRZly2EdZO/Ztb3Ba58jyV5bXtlWoCRKVKASKVHJYhITCBIAiUjkwEEaTJ7p6Vhd6b39o2YGGEzqSSBF4junz8zprnrvdX/10r3fvU8opRSX8LaB9kY34BIuLi4R/jbDJcLfZrhE+NsMlwh/m+ES4W8zGFNZmFIKKeXA643a8UnXxS3ksbo6sdpbKbeexWpvw+5qw+low+3uwCvlwfMG7hGBAHqqBqOqBiNdQ6C2nvp3votY40L0cBglpX+d9sb0ESEEmqYNvIQQEytnqvbhjuPgnfcDXmyU21spHD1E4fABzBNHcc4ex8u3o2QAhea/pER5EuW6DPm5hPBfmo5QHiIU5vL/eJjwzDkAdPzyMXr37iQ8ay6xpcuJLVxCZObsi/49+6HrOoFAYNz3TbqHe56H67oXtTcrpVCuS/FUE72vbqWwewtuZwuuWcazbGTZQtllkC4IC4QOmgYIfKYFCgb1kv4ejF3GzZ5hzn/5NIFUFULTyB87Qmbrr8i9uoVCPE1PQEePRgg2zCd5zc0kr1hLdN58NGP8BEwUnuchpcQwDHRdr/i+SRGulLroZNvZXnpeeoHs1mexzx7CKTi4vRmUY4PQQNP9v3oAYQQrLlcIgVIKoRuEl66n7p2/iR6JApDZ8gylY4eRjofK5UC6KCUxz7ZROnmc7sd0wkuuILnuOlJrryJYW49mTOlsOSz6f//xDPGTapXjOBd9nna6O+h88jFK+3ehrBwiFAc9iAhGJl+49BABwYwP3U+otgGh65jtbRT2b8XpbkcEwv4PqxugFCiJ09GKVS5itndhnjxO7pXnia+8kvgVVxGdtwA9FJp8u0aBUgrHcQgGK3u4J0x4/8JsOuEWiwhNQwsFEZqO8jy8bC/lpiOAQovVTFldSnoIXSOyeDl1t9yB6Jsfe1/ZgtV8CuVJNONcLxJC9E0VOnoghPI8zNePYB4/RP7QfqK7tpC8Yh2JNZuILVyMFqh8tBkv+rnQKlhQTorw6YJSiuLJ1ynu30l08QpiSy7zCZceXqmALOZAn+L50nXQYlFq7/gQgWQKACeXI7v1OZxcCREYfQQRmgbBsH9fZyu9Z49RPLyX4utNVK3fRHTFaqKz505tm89DpSPthPcY0zGUKymxezNkX3mRlu9+lbMPP0D51HF/9Qwo18UtZJHFLoRW+UJl7Ho9RCBAdNES6t5x+8D72d2vUG46gLLMcW3HhBFEi1bj9hbpfvIxTn3ps7Q98hDZ3a/ilkrnFohTiEo74JumhyvPpdzeSu+OLZz9xhdxWpuIrd5EoGEOmu43UzoOTjaDks7U1asUeC6heQuoe//H0MN+T5a2TceTP8HJlyY8mggjALqOk+mh45Gvkd35KvM+8SfELruCYHXtlC7sKuXjDe/hSko8s0Tx9aOc+MI/c/LTf4qb7UEYYYKz5qEnkgPXepaFk8sj9ClYoPVDeohgiOiylVRfe8PA24WmYxS3PolXzE9qNBFCQwtGELEa7ObXOfpff4fm73yF0qkmvHJ56n7HCsuZ/r3DKFBS4uRzZF54ihP/8r9AumjJuQgh8EoZIrPnEExXn7vetnELeYQRnpr6lUJZeaKL11D/7g+jB0P+D6cULY98GxVKILypGcmEEBAMowdn0/nDL5HbuY159/8Z6as3oUdjE7acjRdvqC3dbGuh9ZFvcerf/h4RCCEi53qzMMIEq2rQw+fI9ewydm926hZsSqIl64gvX0di+eX+e1Ji9/ZQePkplCf9Pf0UQ0vMwGk7w8n/9/d0PvVz3Hx+yusYse6LVtMFyB05xJkH/pm2b30epXyDiRDCN4B4LiKSJFjbMGD8AJAlE6erDaFPzcAkzSzJ1Wuouf29A/OpZ5Zof/xneFYZYFp6ntA00A28UpHmL/0fTn/l05TOnpnyeobDGzKkZ/ftoe3RB8ltfw70MOjG4B9WSQJ1c9DjyT6TaN/btonb0+1b0yYJ5bkEZy8kue46YvMX9VUrcbIZun76bX+PPQ29ux9CaCgU0tPJPPMEyvJouOd+EouXTVud8Ab08MyOrbT+8EFyr7yItBUiGB7Si5TnEl60DD2ZHvSZLGRwWg4PeggmClnsJbV6HemrbxhYmbvFIpkd27DPnpySh2os+MYbA7do+kamKRq5RsNFJTy7bw/tP/0uhd1bkZaLCAy/+FKOSWTufIx44tx70sMzS3j5LGKSPU85FqE580muvprwjFkD77vZDN1P/BiMEIiJuyArbofnghAkN1xP/Z13Ea6r97eeudy01XnRCM8d3Efbo18nv2MLXqmMCIxsY1blItF5jRixc4RLy8YrlWCSi2YlJcq1SW28hfgV69H6TKhuoUDx2EGK+1+dGrv8WO1wbYRukL72ZmZ96GOkN1wPQpDbtZOWB75MuaNtWuqd9jFESQ/zbDMtD3+Z/M4XkY4clWwANIPIrNno0XMLNrdcwslnYZLGCuVaRBZeRtXV1w3yZ5fbW+je/Awgpl3koBwLEYpQtelmZtx1H7Gly5G2RW7Pdtp+8A3y23YjgwXmfOyvMOLxKW3PtH6z/n12xy8eIfviE0jLQxij9GylUNIj0NCInkgPskRJ08QtmmM/LKO1R0nwXKpveRfRJZcj+sqXtkX51DFyO15AhOMTLn/s+hXKsdHCEdLX3MTMD32M+PKVoBSl44fo+MUPyL76HCqu6PjRN+h+4Sm8YmFKzdjTRrhSClk26Xn+Cdp/+FUIJRDBsQ0myrEJL12FFo4Oet+zynhmEaFPgnCrSGjuQtJXbyLcMGPg/XJ7K727tuJ2np5SG/2gupUC10KPRkjfeCfzPvmXxJZchvI8Sk2HaX/sYXpf3owWr/MNS8EaTn/hs2R3v4Ism1PWjukj3PMonWzi5D/9DWihCrc4Cpwy0QWL0cKDHw5ZLOL09k5oha6U6rOqZWi46yOEZ80b3M6jB+h96QW0+IxRSpk4/JHFRmge6Vvfx/w//Ev/gVMKq6OV9h9/m+6nf+LvWPrsEWgaqlzi1Ff+ldLpE6gpko9NC+FKKazOdk499AXQg0P32SPeCMoziTbORw8O7sluPovT1YHQJjaHK6dMbN0dVG24ccD9CWB1dlA4vBun9ShiHFKhiuvt69lC2NR+8JMs/vO/IZBMoZTC7u7kzIP/TtdzTyPCyUGjixACEYpQPvoqHU88htXZPiVD+7T1cFkqYjUdndCcG5k5F3GBYEBaZbxicWJ7cKVQhS7mfOR+AtW1gz7KH9xLds9etMjUiSkGVW2X0KNBGu77FI2/+8mB96Vtc/orn6P3pWdAyhH3/XpqNl2PPkj+tR14peKk2zNthGvhMIEZc8BzK7pe9UmG9PQsAsNowqRl4ZUK47Z+KSlBusQ33kli5Rr0yLmpwsllKe5/hfKxvTCCTWAykGaGYE2KWff/NbM/8JEBv4DyPE4+8K/kdm5Fue6AWXk4CE1DGRFavvcQ+f27J92maSFcCIEWiRJbthLljc93HWiY6xtczuvJ0rbxchm8XC8MFRiPDs9BFbtp/ORfYcTig4w2+QN7yR89jGLqjSyy1ENs6XLm/P7fUveOOwcZkU5+5fP0PvcL3Hx2VLL7IQIhzNf3ktn63KRt7tPWw/VgiGjjApRT9AV/Y8Lv4eFFyxDB0GCTqufilfLIcmFcQ7ryXLRQkKrb7yG2aOkFD5FFftcWzKP7R7T4TQRKSqSZJbZiDQ13f4L0NTcQ6PPpS9ui+fsPkXmu30NW2YMmhAZ6kN6tz1PYuwNp2xNu3/QN6aEQ0bnzUGYRqIBwpcCziC9bMUTfLa0ybqHHV6lW2BP7/dqBqlpm3v0x9NDgh6hw7AiFY4eRpjllWzElJbLUTWrDdcy695NUbbyFYCoNgFsq0vbLn9D+w6/i9HSBpo1PNhUIY7e10LtrK8UTxyfcxmkjXOgGgaoa3y5dyTCsJMoqEWtcgBYYPH97pRJuoUBFD87ATQ56NExy483Elwz2QEnHJrvzZcpnT0+ZGVVJ36iTvuZGZtz1O6Su2kQg6fdsJ5cjs/UFOh59EKerA4Qxbn+AEBpCD1B4bSu5nZuRzsRkXtNHuKahR+OEFiwHKpDgKACP8Ox5Q7xGbrGAV7IQemVDb3/vDtXPpP5dH0C7QBtuNp+hsH8XbncXTHIrppRCeR7KtUhdvYnZ9/0pySs3YcR8i51byJPd+TKt33sA88RRtEhywqZSEQhitzaT3/sqZvPpCZUxJYR7loUcJihBhMJEV20A5TJa71RKgSYw6mcTTFcP2Q97pSJuqQRahUoXz8ZIpYiv3Uh80dIhH/dufxGr+ZTfxkl43pRSICVC10iuXsesj/w+8cvXDAQfuMUC+QN7aP/59yge3IUen/zWTwRimGeaye7aipLjN8ZMCeGlU01Yne3+fvL8wgMBEiuuAKcEahQ3l5IITSe68rphfcJeIY9XyPsRH2PAf+gUscsup/499wz53MnlyGx+nHJrM0wiFqx/G6kFgyTWXMPC//ZZEitWD3jfPKtMfv8uWh/9OrmXnkZP1E+4rvMhAiHs1jPkd76MncmM+/5JE66kpOeZpyns2zNEb60ZAWLzF6LcMVbqSoGA2GUrhx1i3XweL1+hetSxCM5oJLXxncTmLRjycWb7izidZxHICfdupSQoDy0cJnnNTSz6b39PqGHmwMjkWRaFI/tpf+ybZF96Ej09c0L1jAghsNpb6N25bdy3Tppwt1gg99SzmPsODbH3Cl0n1DADLZKGvmC9YSE9hLKJL16K0Ic2SRazeIXsmFsy32GTJ75oITXXv2NoOa5L5+M/ws6ZMEHla7+OXQ+FSF37Tpb+7WcIVNUMzMtKSopNR2n93pfIbH4SPTHFZAPoQaz2NrLbNo87qGHShOf278Xu7sLp7cUtXKDU0DQC6VrCC1ePLhlSLgKTyNwFw/Zit6cNt7tlzB6unDLRFetJbryNYFX1kM+zr+3COrEfnPKEF07KLqGFAtS8+16W/vU/IPTBhhO7p5uzD36azAtPoMVqRylp4hCahpfpwDywjXJH+7junTTh2V3bcPV2vEABtzjU1qsZOkbdTP9HGaaHKyXBCGPULyNYVTUQVtQP6ThIs4hyymM3Rnqk120gffW1w37c/vNH8WwmLHOW5QKBmloaPvwHzLn394Z8bnV3ceo/PkN+/2G0aM30iiBDUTyl0btz+7jum1SLPLNEaf8WpFlEOr7mbFCj+kJr4yuu8HkcbuGmFCIQJDBj3iBJcj/8LdnY1jpZLhJfew2pq68nmK4aXIXnUWg6Tv6lx5CWOSEiZLGLSGMjM+/9JDPee8/AHrsfTi7L6S9+luyrL6E8BVqFHsKJQjdws3kyLzw+rtsmRXjx9Em8XA40oy/zwtBeKHSN2KIlCLwRCddCQcKNCxHDBLY7+RyeZY/aK/3tiSK9biOxpSuGbOuk69D++E+QrjYhcaIsdhJZtIz693+UmhtvH7Ce+c1XSNvmzENfJLd7O9IqXxQBJEJDOWXs5qNYPd0V3zYpwnP7duOVXUQggpvN4uaGbhOEphGeMw9wQQ2zb5QeetAgtmTFsHV4uRyeZY2azUGWMiTWbSS5ZgNGYnDPk66L1dFGz+PfBT3i683HAVnsJL5mAzM+9PvU3HgHodq6gc/6VT3N3/4Kmed+6dvHK3CGTAVEX04aaZoUjx2u+L6JBxNKSfHQa3hlG6EHcbMZ3Fx2mJZphGvq0KJJQBuyUlfSQTMU0fkLh63HyffimuURjS5KSvRkDTU33Ul0weIhP7ZXKpJ55WXcrnboi2yp7Pt5eIUOElddy8y776f6+lsJVg82nHilIq2PfZ+OX/wAN58bV/lTAqEjXUVu356Kb5kw4Z5Zwj5zDGmXQdOQpQKyVBjaJiHQI1ECsxf7mrYL52Ip0TR9xIxIbjaLLJVGXFUrq0Dy6puIr1gzyAUJ/txtdbTS/eSPEJE0ldj0fSGlRJULJK+6lhkf+D1S664lkEwPus7J9tL9/NO0/+Rh322r6ZPWy48bQkM6LsWj+5FuZbqDCbfQ6u7E7T4LruNXbJn+anqEimPLr/Rlx+fN40ophBFCTzcMkh2dDzfbg1cYKnzoV7jqsTj1t/0m4Vlzht5bKlI4uIfia1vRholwuRD9plJlFUmsvYq59/930uuvH/IgOdleul/8FWcf/jJOe7OfQOgi9mzffu/6OxfpoIdCFWveJkx4uaUZ6Ul/GNM0cB28YmEgCO9CxBYtRQvocL79V0m0RIrQopUj1uNms3jm8H5wVcqTuOZWokuWY0Rjgz9TCrurne7NTyECsSH3Dimrz+EiDJ3YosXM++P/SXz5yoEwpIH2FAtkd22n7dFvYp86ihaOXzSyfaIdf90TiRCeNZvE6jXUvPPdFScXmLCqv3TyBIggaL4zXnkOnlnAM80BT9H5iMydhxAeynPO6dw8FyMWJ7r48mHrUFLi5bp9O/r57yvlW+c0j1l3/RbBqqFOCWlblE8eIbf5Z+hVjaN+lwG7eCBAfOWVzP/U3xGubxgyjXilErm9O2h99BuUj+1DmwJnSCVQSvojqR5ADwcJVNcRX7uJ6hveSXrt+nEZkSZMeLm1GSXVOUOJdH2h4Qg9PDpvPnrfHK6U6gsLttGDOuFZw8/fXtnEM0t++HC/6bKPbKRD3b1/RqRx8YDDoh9KKcyzzWR27kAE08MVPehapIcwDKKXrWLR33xmUBKCges8l9yB3bT++JsUdr2InpweSfOgdvn/ABJVyhCcs4jq2++m5pbbiS9Y7OvdlPLnbykhPLa5eOKEnzjWN6Sfe7rcYsFfrQ4DPRwh2Hg5ZmfGn+eFAM9GC2tE5swb9h6vVMLLdYNjDkoWgJLokTjzfvvj6MOMJiiFefwQPc/8JyI8xnDu2ohQhOpbfoP5f/RXw45OALkDr9HynX8nt/0F9NSsYa+ZctgmstRDZOV1zLj7H6jasInQhTsF0yR38DXM0ydZdO/vjlnkJAg/DOcv0LQAnlnGHSnyUdMIzJyLFong5XIoKRHhFIHahSMu2LyyiXRKfgrNgTdd9FiMhnv/EP2CxVQ/zLYW8gd24vW2oSXqhr0GQFpFjHQNtXd+iLn33Y82jKUPILtvL2e/9Tnyu7ejTXfP9lxkOQdOltStH6X+jneTXOnvQM53HXvlMsXjR2j+zgMUtj5B+j0fq6j8CROe2HAT+W3PoazyQII6aZZ8JeYwEEIQmduIHgrjyR4/oV0yTXDmPLQRsgi6+RzSPqfZVn0r/GBNPQ13vnfExVLp0Gv0vrIVEUmNeI20SgQbZlP/3nupu+09aJHosNcWz5yk5aHPUdizCxFMTMvWy49otcA20dM11PzGx6m97gbCcxdjJFPo4cjAlCZdh8LRw3T85w/Jv/IcTr6ECiVxuroqqmvChM96/2/RtG87VrkE6AhNxy2VcLMjO+Ujc+ejhwP+wk0IjESS4MzZIy467O5OZNmCvmgT5VgE0knq77pvkHnzfJjtbeQP7sBuPoKIDJ2LAWSxh9C8JTR84KPU3nwHgarqYckunT1D85c/Q+HAHhQGYoqTASrpoawiCEFk4Qqqrr+V1BVrCc1ZQLCmdkj2xtyRg3Q9/iMKu7dhdXchzVJfXlkDp/1sRXVOmPDYoiUkrrkZ99lf4Jm+/ViWy36wwAgI1NSiRWK+b9xz0OOxQQH5F8LJ9iJtGyF0lJRogRCRRcupuvamEe8pHt5H4fAh0ILDkugVu4kuWUXdu+6m5oah1rN+2Jkezj74OXJ7XkU6ys+5NkXwiS6AHiS2ch3JNRtIrFxLZOFSQsMEYRROvE7vy8+R27sN89hB3GzON/QYwYEFsFesLInAhAnXwxHqf+ODFF97ldKpJoSmI0sFvGyvPz8P02tDNbUYyRqEHkTZRQLJJKFhDCb9cHNZpO2ApqOsEsGZM6m99S5CNcPPy04uS37PVsymI4jg0MWal28nvmo99e/7KOkN1xGqHuqvVlL6yXa+/nkyLz2LclVF0qqx4AsnHKTZTWDWMuLLriO2ZDnxFWuILlxKsLp6kL9fSYnV2U5m+xay256iePQobqYHYFD4lu92BmlWFoY0qW8SX7yM1MabcXo6cHI5ZKEHN9Pqp7IchnAjGiNQPxMtGsMr5wgkkoRrR9Z6edkM0rYAhR6LE1u+lvTG60e8vnDkIIWjB5ClAlr4vHQhSiJzXSTWbaThAx+jav11Q5ws0BfP3ttD248epuuJn6CUAH1yzhAlJThllGsRnLeU+NIbiK/a6BM9bwFGLDbkeieXJbd3B71bHid/4CBWy3FfsasPP2qBGnS6w2iYFOFC06i+5V0UDuzEPfAastSDV+hGlsto8eGHwNDsRoxkFbKQwUhVo0eH3zYppXB7u5BlE+U5hOevoOrGO0ecu6Vtk9v5MlbzmYFEuP4e2wXXJHbZKmbe+8ek1q4fYpXzr5U4uV66nv4FbY9+q09JO3GyleeBdBGhMKEZCwjNnEH8yhuouvZGIrPmDAm26CfabDpCfs82MjtfobBrM1okjQgmp8yaN+mxKrF4GalrbsHu7KLc1IFnlXEK+SH2535EGhdipBLIUg2BGY0jO0VcB7enHVnMoScSJNesp2rDphHbUTpzksK+V3C7O9BiqQHtmRAOkWWXMfeP/o7k5auHNUEqpXB6M/RseZaz3/oyynUqD3G+oBykh/IsX5Pf0Ehk/hKSV99I+uprh+yh++Hkc5hnTpHf+wo9W56msPMFRKQKPdlQUZ1CiIF032NhSnK8VG26hdKRvZSbdiH70mOOhNCM2RjBMDJRTWjmyPO3Z5bxct1IM0fiqmtJrb9x2J4Jvs878/LzWJ2diFD0nPVMeEQXL2ben32G5PKR7fVesUDv9pdpefhreMUsWmj4/fhwGLCISRcQaOEQRjhMdMU6au+4h9QVV4748HuWhZPpJn9wL51P/JT8ji3+Ynachh0F6KnKzLxTQnhs3nxS62+msH8nslgeNZVkZMZMDL0aFTEI1o1sxHAKOaRpowcjpFZfRfKKNSNea3W1k9vxAk5Xux/apCRCU8SXr2L+X/0j0bkj29I90ySz7UWav/kF7NaTaBXmeBlEtNARmiRQ1UDqhtupu/29xOYvGtGhIV0Xr1igcPQgbT9+mNyOzaiyiQjH0SYQTy80DWMYf8JwmLIsTlWbbiT/wkvkdu3EK468NdPDEYxZUXQVIVQ38oLN6enBa7FIbXwPqY23jHqATM/LL2K396k3lQTpkdr0Dhr/5K8J148+LGa2v0jrDx/CPvs6WmToQm40KMdCFtoIzrmchns+Tt077iBUWz/mVGB1tHPm4a/S+8vv4ZUttHgVWnR4a2MFrQABRvoiEx5Ipki982acqMDu7hj12tC8y0DXByXOvRBWRytaYzXVN984bLhQPzyrTM/jj2B3tgMauDY1t72HuZ/4FMFhtl3no2vzr2j57lcoHdmLCA8/7F6IfmOJQBK97Coa7v4nqq/ehB6JjLpX93cAGU5/52tkfvlNpA3oYbRElHHHvA8q2I+0GW16PB9TRrjQNFLrr8G1TKyzzaNeG12yAk3XRz0HpNxyhqp33El81dpRc6/0bH0Rp7sN5VgY1fXM+MB91N3xPoLVtaO6DXu2b6H1B1/GPLq7z2Q6hjjCdZClbvRkitSt76f+tncTX7IcPRZHC40srlBKYXV10vn0z2n/9j8iZQzlGX6EzVRIopRCKEl4RmUBD1OamC+QSBFrXIQYQ1cRnb8QoYkxIkkEyctXE2oY/Yt0/Pz7OD3d6KlqGu66j9rb30Owpm5UsrOv7aL9sW9iHjsMRnTUAAdpl1HlHkLzlpK+7sOk164n3LiEYE09RnT0xV25vY3M9hfpeebnWM0n8Moa6HJqJcxKIqRHsHZkJ9H5mFLCha4TaVxIoLZuRGsbMJARYbQvnb7qGsIzZ494DJR0XXIH9lJ6bTtG/SxmfvCj1Nx8x5hk544c5OxDn6d4YA9KaiPax6XpK1CjK9ZQtX4j8ctWEZ6/lFBNLVpw9IVVubOD7I6t9Gx+HPP1AziZfN/JC2Mrb8YNJQGHyCgL0/Mx5ak3jXgcPTb6k19JeqzY/EVDEgOcD+U4tD32fYy6WTTcdR81N91OaBSrHUDxzCnaH/kaxQO7kY43KNVH/75d2UVQkvj6G0mtupLo0lXElq0gWFU95smDnlkit38PmS2PU9i3h/LZZqRVQgSj4zo0r1IopUBoaIlaghd70dYPoWljDumVYLQFnWdZFE81YXe0MOOe+32PV3LkFbaSknJHGy3f/Fd6X3oW6TFAdn8eNVAY1fXEllxLbMFCEutuJL5shX88xSgjhlIKZdvkD+8nt/15svt2Yx7fj2eaiGAULTR9qTxBIYwggVlL0KOVZbJ4Q888mSikZVE6eYLa295D3a3vGlGlAr6J08ll/WyHT/4IEUr7zhspUbaJCAQJ1s8iMn8B0aWrSV9zA8kVqyprh+tQOnWS4sHd9GzbQn77s753LzTdRPdBKUTQILLosorPPf21JFzoGsGaGqrXv3vU65TnYXV10P3cL2n9zhfRor5/XDkmIhwjVDObcOMikutvIH3tTURmzKpIEOhZFlZHK+bxw3S//By9zz+JtMuIYBgtMr1HTw6C9NAMQeLy1RXf8mtJuBGLU71+46jXKCmxM910Pf0zmr/6OUQ4gfIsjHiaQLKO8OKVVN94J6l1G0Z0yFwIads4uV5Kxw/R9fzjZJ57GlnKIUJR/3WRtekoiR4KkFhe2YgEv6aEjwWlFG6hQO7Vl2l+8N/8hU3AQBMWifXXMeO9v0VsyWUj2uaHlNd3tprZfJLM1s10Pf4o1qn9aPGZfSFUbwD6vHl69cxxHXH5liN8IG33C09y+oF/QTh5tGiMmvf/LjPf96FhFSWjlaVcB7u7k67nn6LjsShtpBAAAAoASURBVG9hnTqKFqtBT03fOaKVNc7DSKVJbbptXLe95QhHKbqe/gWnH/gXjGSK+o//BbU33IwRS/piyXEMu9K26Nr8LG1f/7+Um09DKI6WrGdSptApgrKL6EaM9Nqrx3XfW4pw6Th0PPlzCidep/Ev/jeJFasIpGvQI+Fxq007Nz9D28MPYJ09iVcuQyh+0UKBx4KSEhFKEJy73E8pOg68pQh3S0USq9aQXH0lgXS1n0x3HGE4Xtkkd2AvHT/9IaUjO7AzOfB8mfR0n4MyGpT0fKOQ5/oCC8ckNLuR5PobhiQdHAtvKcKNSAQjOndI6NFY8MomxeNH6X7hCXLbnsTqyqPKRTDGkdx/nFDS85ULSJB9Shnpy6KUW0I5vkZNhCIE6ucSqJ+Nka4mUFWFEY8TbVxE8qprx922txThY9m4L4QfvXGU3q3Pkt3xIlZHB25PKyKYgMDY4cWjQfX55ZGyj0gPPMsXeAZjiFAMLRZDj8TQEymMVAojnsSIx9CjUYKJhK+UMQLosTR6Mo0WiaFFIr6mIBYf1eA0Et5ShFcKJSVmSzO5HVvoffVlikf24bQ2IyIJtPDIQoT+kGLo+9tPqlIoz/Jj5pRCBMLoyRr0ZBV6NIIWiaJHIxiRCFrQQE9Wo0eSGIkkWiyBHo1hxJO+qzUWGyCz0m3jePC2I7zc3kZ+93Zy+3b6Kte2FoRuIGIpn7i+XumLvSVKeedkTHoAjCBaKIwWjqCHo+jxmB+mpEuMUAQtGEKPJfwkBzX16LE4ejzp995UCj0UQo/G0IwAWjA4LeesjIa3BeG+BDmH2XSU7M6tdD3xI+zWZt8fr2koxwGpIwJRf9gMGAjdQA8GEbpAGAIRiqLHkuixFHo8hZ5IY1RVEaqbQSBdhRaJEqqtw4jGp5xIadt45TJuqeCnT4knJlz+W5pwJSVuoUD57Glye7fS+cTj2M1H0ONJQnPmIzSJUH42ZC2eRK+aS6BhFoGqaox4kmBNHUYyhZFKY0RjGPEEejRasaNiIu1VrtsXF2/imUX/+K5MJ1Z7C3ah6As6V1xxifALoZRCWhbF14/Q8si3Mfc8SXDxNaRv+yDhOY0Eq2oJ1tURrK4lkExhxOJowdBFG2KV56/KpeOiXBfl2HhmESfTRenMKUqnT2OeOE75xBGcjmZkrpP0rR+gav2mEaNtK4FQEzwMqzxMEr43E/pjxMod7YTrG0bUhk97O/oWekrKvmgUbyCkyepoo3jqBKUTxzGPHcQ88hpux0lEOIwWjPs+ez2AQmHEkyz48/9Bzc13jlhXeDozQLzZITQNI54g/gYR3Q/luti9PZROvk5u/x4Khw5gnzqO3X4aZfb6WRsDEf9MViNAYNZQy5nX08TMT/wT8dXjM6MOh7cs4RcbyvNwiwXKXR2Umo5TajpG6eg+rBMHkdkuMAIoEUQpzd+LB8IIo77Pti9GtPHLUpbULfeQuuqGit24o+ES4ROAtG2sTDdWWwulk02Yp5qwmk/itr6OW+xFSYHyhH8siG2DMkAJ0CQIhU8wox6r2R8upUVTzL77o0TnLZiS9cUlwkeBdGw8y8Lu6cZqb8U8fYJy0wGsM0eQZQflKdyyhVcuI00TZfVnnNL9rBVCA2P8SfsGghJtk7l/8rfEll4+qYXa+bhEeB+kbWFne7EzPVitZ7E72rDbz+J0nMbJdiNNG7dQ9DND5rpB9ZGpG36OGyFAD6KNcj56xfAcVClLw2//MTW33IkRnzp93NuOcCWlT25vL053F3Z3B05nK05HC04+g5svYGd6/OzQ/eS6fvpuYYRA09GiVWNXNNH2eTZCOCSuvYWG991LIF09pZ66tzzh0nVxejOYzadw2ltxc924vd3YmQ7snl6cngx2RwtuTwd+em+/pwrd8E8PDMYQF0OBCijXRuiK+OoNzPnop8YlXaoUb3nCkRK3VKR8tpnS8UOUmg5ht5zA7enoO8NTH0iQg9D6joi8uPZt8MnWAhrR5auY+eE/Irnyimmp5y1reOlHf4ZkaZVxigXMM6cwT5/AbDqK1XoKr7f73BEejo0sWyjbQjmWvyrW9IE5errULspzEDrELl9Lw3vvo/bGWydUTiWGl7c84aNBug5Oby9WRxvl1rP+g3DiOPapw7iZNpTQUEpHuhLl2H2ZoPv2zP2vPn3bhHPBuDZCk8TXXM3MD3+SqnUbJvx9LhE+ASglkX1bsWLTMYpNxyjs30352B68jB+DrrS+4V9onDOaiD7uK3sA+n92VegiseEm5nzsL0hdsXZSbb9E+BRiIMvSmdPkj+wnf2Av1qkTWGeO4XUfAyPuL/CCUYQeGHNlrTwXZRWpe/99zLjrPmIjHAEyHlwifAoxcFqC5/pnqTkOyrH9DNI9HRRPnaR06gSlQ69RfGkHXq4DrT7i54szDIQW8BeEuoG0SiAlsz/+p9Td/n6CNXXj1uENh0uETzMGPGGui2eVkbaNNIt4+SJeLoPZ2YLZ3OwfxnvmJG5nC05bE8nr3sWc+/6A+PJVGPHklLlkLxH+BkKeJ2SQpSJeqYhXyGK3txBZejmxxkXjlhiPhWkl3LZt5DgPOr2Y8OPL8hSbjuNmMxipNIF0FYF0lZ+OWjeGnBs63e1Rnocsl9Gj0SnXuWuaRrACe/uEDS+apr2pCQfQDAM9EsVqa6Hr+afwTrYRqI+iJ6PoqTqMVI0vEY4n0RNJjGgcPZUikEgiDAMjEpmyaBMhBMIw0KbQLn4+tAofoAkT/mYIuRkN/eelxRYsQo9GcTpayJ5so/eVLbiFDvRELXqqrk9VGkePJ9DDUQJJXw+uhaL+33AULdqnHY8lEeEweiTipzYJhX0t/MU+oG4YVEr4hId0AMuyRj4T/E2IwskmMpufIrdzC+bJ47jZXJ/uQPRFgshzx23oQV+SHI5iJFIYVTUY6Wr0aBQjFiGQiGNE4r7kOJJAT6QJzppDZOYc9Ehl6TemCkIIQhWuByZFuFIK27Z/rUgHP21X169+RmH3K9hdbUjL8h0mF/SSgXAgJUH5WzLl2uCWUFYB5Qn0ZDXhhSuJLLuCqg3Xk16/ccjpxtMJIQTB4EhptYe5fjKEA3ieh+M4kyniDYF0HLJ7XqX9p9+mtP9V3LL09em6gW8tU4PIBtXnIjXQdA0tINCjESIrr6N60y0kV63x5/6LHFgQCATQx1HnpAmHvvTTjvOmX8QNB9cskdu7k5ZHvoG5fxuKsJ+SWtP8Hq88kGWEphGonUuwcRnRJctJX3kNsUWLpyUcqBJomkYgMH41zZQQ3g/P85BS+luQvtevC5xcjuzeHbR87xs4HWcJzl9KeNZcQjNmE21cQHj2HML1M94wgkXfwlAIgaZp4+rVg8qZSsIv4c2PNy7K/RLeEFwi/G2GS4S/zXCJ8LcZLhH+NsMlwt9muET42wz/H6hNrKTV0AvTAAAAAElFTkSuQmCC;" vertex="1" parent="1">
          <mxGeometry x="76" y="42" width="94.07" height="88" as="geometry" />
        </mxCell>
        <mxCell id="30JBpPZ3a9GQzdrcGxqS-39" value="w19bddvdoc" style="aspect=fixed;html=1;points=[];align=center;image;fontSize=12;image=img/lib/azure2/databases/SQL_Database.svg;" vertex="1" parent="1">
          <mxGeometry x="353" y="358" width="48" height="64" as="geometry" />
        </mxCell>
        <mxCell id="30JBpPZ3a9GQzdrcGxqS-40" value="DB2 for i" style="aspect=fixed;html=1;points=[];align=center;image;fontSize=12;image=img/lib/azure2/databases/SQL_Database.svg;" vertex="1" parent="1">
          <mxGeometry x="510" y="353" width="48" height="64" as="geometry" />
        </mxCell>
      </root>
    </mxGraphModel>
  </diagram>
</mxfile>
